<?xml version="1.0" encoding="UTF-8"?>
<svg id="Layer_2" xmlns="http://www.w3.org/2000/svg" viewBox="0 0 1146.23 1483.37">
  <defs>
    <style>
      .cls-1 {
        fill: #f04e23;
      }

      .cls-2 {
        fill: #09958d;
      }

      .cls-3 {
        fill: #102548;
      }
    </style>
  </defs>
  <g id="Layer_1-2" data-name="Layer_1">
    <path class="cls-2" d="M202.28,1483.37c0-37.24,30.19-67.43,67.43-67.43s67.43,30.19,67.43,67.43h-134.85Z"/>
    <path class="cls-2" d="M202.28,1348.52h134.85c0,37.24-30.19,67.43-67.43,67.43s-67.43-30.19-67.43-67.43Z"/>
    <g>
      <path class="cls-1" d="M67.43,1213.67c37.24,0,67.43,30.19,67.43,67.43s-30.19,67.43-67.43,67.43v-134.85Z"/>
      <path class="cls-1" d="M202.28,1213.67v134.85c-37.24,0-67.43-30.19-67.43-67.43s30.19-67.43,67.43-67.43Z"/>
    </g>
    <g>
      <path class="cls-3" d="M67.43,1348.52c37.24,0,67.43,30.19,67.43,67.43s-30.19,67.43-67.43,67.43v-134.85Z"/>
      <path class="cls-3" d="M202.28,1348.52v134.85c-37.24,0-67.43-30.19-67.43-67.43s30.19-67.43,67.43-67.43Z"/>
    </g>
    <g>
      <path class="cls-1" d="M337.13,1213.67c0,37.24-30.19,67.43-67.43,67.43s-67.43-30.19-67.43-67.43h134.85Z"/>
      <path class="cls-2" d="M337.13,1348.52h-134.85c0-37.24,30.19-67.43,67.43-67.43s67.43,30.19,67.43,67.43Z"/>
    </g>
    <path class="cls-3" d="M471.98,1483.37c0-37.24,30.19-67.43,67.43-67.43s67.43,30.19,67.43,67.43h-134.85Z"/>
    <path class="cls-1" d="M471.98,1348.52h134.85c0,37.24-30.19,67.43-67.43,67.43s-67.43-30.19-67.43-67.43Z"/>
    <g>
      <path class="cls-3" d="M337.13,1213.67c37.24,0,67.43,30.19,67.43,67.43s-30.19,67.43-67.43,67.43v-134.85Z"/>
      <path class="cls-2" d="M471.98,1213.67v134.85c-37.24,0-67.43-30.19-67.43-67.43s30.19-67.43,67.43-67.43Z"/>
    </g>
    <g>
      <path class="cls-2" d="M471.98,1483.37c-37.24,0-67.43-30.19-67.43-67.43s30.19-67.43,67.43-67.43v134.85Z"/>
      <path class="cls-1" d="M337.13,1483.37v-134.85c37.24,0,67.43,30.19,67.43,67.43s-30.19,67.43-67.43,67.43Z"/>
    </g>
    <g>
      <path class="cls-2" d="M606.83,1348.52c-37.24,0-67.43-30.19-67.43-67.43s30.19-67.43,67.43-67.43v134.85Z"/>
      <path class="cls-2" d="M471.98,1348.52v-134.85c37.24,0,67.43,30.19,67.43,67.43s-30.19,67.43-67.43,67.43Z"/>
    </g>
    <path class="cls-2" d="M741.68,1483.37c0-37.24,30.19-67.43,67.43-67.43s67.43,30.19,67.43,67.43h-134.85Z"/>
    <path class="cls-2" d="M741.68,1348.52h134.85c0,37.24-30.19,67.43-67.43,67.43s-67.43-30.19-67.43-67.43Z"/>
    <g>
      <path class="cls-3" d="M741.68,1213.67c0,37.24-30.19,67.43-67.43,67.43s-67.43-30.19-67.43-67.43h134.85Z"/>
      <path class="cls-1" d="M741.68,1348.52h-134.85c0-37.24,30.19-67.43,67.43-67.43s67.43,30.19,67.43,67.43Z"/>
    </g>
    <g>
      <path class="cls-1" d="M741.68,1348.52c0,37.24-30.19,67.43-67.43,67.43s-67.43-30.19-67.43-67.43h134.85Z"/>
      <path class="cls-1" d="M741.68,1483.37h-134.85c0-37.24,30.19-67.43,67.43-67.43s67.43,30.19,67.43,67.43Z"/>
    </g>
    <g>
      <path class="cls-1" d="M876.53,1213.67c0,37.24-30.19,67.43-67.43,67.43s-67.43-30.19-67.43-67.43h134.85Z"/>
      <path class="cls-2" d="M876.53,1348.52h-134.85c0-37.24,30.19-67.43,67.43-67.43s67.43,30.19,67.43,67.43Z"/>
    </g>
    <path class="cls-1" d="M1011.38,1483.37c0-37.24,30.19-67.43,67.43-67.43s67.43,30.19,67.43,67.43h-134.85Z"/>
    <path class="cls-3" d="M1011.38,1348.52h134.85c0,37.24-30.19,67.43-67.43,67.43s-67.43-30.19-67.43-67.43Z"/>
    <g>
      <path class="cls-1" d="M876.53,1213.67c37.24,0,67.43,30.19,67.43,67.43s-30.19,67.43-67.43,67.43v-134.85Z"/>
      <path class="cls-2" d="M1011.38,1213.67v134.85c-37.24,0-67.43-30.19-67.43-67.43s30.19-67.43,67.43-67.43Z"/>
    </g>
    <g>
      <path class="cls-3" d="M1011.38,1483.37c-37.24,0-67.43-30.19-67.43-67.43s30.19-67.43,67.43-67.43v134.85Z"/>
      <path class="cls-3" d="M876.53,1483.37v-134.85c37.24,0,67.43,30.19,67.43,67.43s-30.19,67.43-67.43,67.43Z"/>
    </g>
    <g>
      <path class="cls-2" d="M1146.23,1348.52c-37.24,0-67.43-30.19-67.43-67.43s30.19-67.43,67.43-67.43v134.85Z"/>
      <path class="cls-2" d="M1011.38,1348.52v-134.85c37.24,0,67.43,30.19,67.43,67.43s-30.19,67.43-67.43,67.43Z"/>
    </g>
    <path class="cls-1" d="M202.28,1213.67c0-37.24,30.19-67.43,67.43-67.43s67.43,30.19,67.43,67.43h-134.85Z"/>
    <path class="cls-1" d="M202.28,1078.82h134.85c0,37.24-30.19,67.43-67.43,67.43s-67.43-30.19-67.43-67.43Z"/>
    <path class="cls-2" d="M202.28,1078.82v134.85c-37.24,0-67.43-30.19-67.43-67.43s30.19-67.43,67.43-67.43Z"/>
    <path class="cls-3" d="M67.43,1348.52v134.85c-37.24,0-67.43-30.19-67.43-67.43s30.19-67.43,67.43-67.43Z"/>
    <path class="cls-3" d="M337.13,943.97v134.85c-37.24,0-67.43-30.19-67.43-67.43s30.19-67.43,67.43-67.43Z"/>
    <path class="cls-2" d="M606.83,1213.67c-37.24,0-67.43-30.19-67.43-67.43s30.19-67.43,67.43-67.43v134.85Z"/>
    <path class="cls-3" d="M471.98,1213.67v-134.85c37.24,0,67.43,30.19,67.43,67.43s-30.19,67.43-67.43,67.43Z"/>
    <g>
      <path class="cls-2" d="M337.13,943.97c37.24,0,67.43,30.19,67.43,67.43s-30.19,67.43-67.43,67.43v-134.85Z"/>
      <path class="cls-2" d="M471.98,943.97v134.85c-37.24,0-67.43-30.19-67.43-67.43s30.19-67.43,67.43-67.43Z"/>
    </g>
    <g>
      <path class="cls-3" d="M471.98,1213.67c-37.24,0-67.43-30.19-67.43-67.43s30.19-67.43,67.43-67.43v134.85Z"/>
      <path class="cls-3" d="M337.13,1213.67v-134.85c37.24,0,67.43,30.19,67.43,67.43s-30.19,67.43-67.43,67.43Z"/>
    </g>
    <g>
      <path class="cls-2" d="M471.98,943.97c37.24,0,67.43,30.19,67.43,67.43s-30.19,67.43-67.43,67.43v-134.85Z"/>
      <path class="cls-1" d="M606.83,943.97v134.85c-37.24,0-67.43-30.19-67.43-67.43s30.19-67.43,67.43-67.43Z"/>
    </g>
    <path class="cls-3" d="M741.68,1213.67c0-37.24,30.19-67.43,67.43-67.43s67.43,30.19,67.43,67.43h-134.85Z"/>
    <path class="cls-3" d="M741.68,1078.82h134.85c0,37.24-30.19,67.43-67.43,67.43s-67.43-30.19-67.43-67.43Z"/>
    <g>
      <path class="cls-1" d="M606.83,943.97c37.24,0,67.43,30.19,67.43,67.43s-30.19,67.43-67.43,67.43v-134.85Z"/>
      <path class="cls-1" d="M741.68,943.97v134.85c-37.24,0-67.43-30.19-67.43-67.43s30.19-67.43,67.43-67.43Z"/>
    </g>
    <g>
      <path class="cls-2" d="M741.68,1213.67c-37.24,0-67.43-30.19-67.43-67.43s30.19-67.43,67.43-67.43v134.85Z"/>
      <path class="cls-2" d="M606.83,1213.67v-134.85c37.24,0,67.43,30.19,67.43,67.43s-30.19,67.43-67.43,67.43Z"/>
    </g>
    <g>
      <path class="cls-2" d="M876.53,943.97c0,37.24-30.19,67.43-67.43,67.43s-67.43-30.19-67.43-67.43h134.85Z"/>
      <path class="cls-3" d="M876.53,1078.82h-134.85c0-37.24,30.19-67.43,67.43-67.43s67.43,30.19,67.43,67.43Z"/>
    </g>
    <path class="cls-1" d="M1146.23,1213.67c-37.24,0-67.43-30.19-67.43-67.43s30.19-67.43,67.43-67.43v134.85Z"/>
    <path class="cls-3" d="M1011.38,1213.67v-134.85c37.24,0,67.43,30.19,67.43,67.43s-30.19,67.43-67.43,67.43Z"/>
    <g>
      <path class="cls-1" d="M876.53,943.97c37.24,0,67.43,30.19,67.43,67.43s-30.19,67.43-67.43,67.43v-134.85Z"/>
      <path class="cls-3" d="M1011.38,943.97v134.85c-37.24,0-67.43-30.19-67.43-67.43s30.19-67.43,67.43-67.43Z"/>
    </g>
    <g>
      <path class="cls-2" d="M1011.38,1078.82c0,37.24-30.19,67.43-67.43,67.43s-67.43-30.19-67.43-67.43h134.85Z"/>
      <path class="cls-1" d="M1011.38,1213.67h-134.85c0-37.24,30.19-67.43,67.43-67.43s67.43,30.19,67.43,67.43Z"/>
    </g>
    <g>
      <path class="cls-2" d="M1146.23,943.97c0,37.24-30.19,67.43-67.43,67.43s-67.43-30.19-67.43-67.43h134.85Z"/>
      <path class="cls-2" d="M1146.23,1078.82h-134.85c0-37.24,30.19-67.43,67.43-67.43s67.43,30.19,67.43,67.43Z"/>
    </g>
    <path class="cls-2" d="M67.43,674.27c37.24,0,67.43,30.19,67.43,67.43s-30.19,67.43-67.43,67.43v-134.85Z"/>
    <path class="cls-2" d="M202.28,674.27v134.85c-37.24,0-67.43-30.19-67.43-67.43s30.19-67.43,67.43-67.43Z"/>
    <path class="cls-3" d="M67.43,674.27v134.85c-37.24,0-67.43-30.19-67.43-67.43s30.19-67.43,67.43-67.43Z"/>
    <path class="cls-1" d="M67.43,1213.67v134.85c-37.24,0-67.43-30.19-67.43-67.43s30.19-67.43,67.43-67.43Z"/>
    <g>
      <path class="cls-1" d="M337.13,809.12c-37.24,0-67.43-30.19-67.43-67.43s30.19-67.43,67.43-67.43v134.85Z"/>
      <path class="cls-2" d="M202.28,809.12v-134.85c37.24,0,67.43,30.19,67.43,67.43s-30.19,67.43-67.43,67.43Z"/>
    </g>
    <path class="cls-1" d="M606.83,809.12c0,37.24-30.19,67.43-67.43,67.43s-67.43-30.19-67.43-67.43h134.85Z"/>
    <path class="cls-1" d="M606.83,943.97h-134.85c0-37.24,30.19-67.43,67.43-67.43s67.43,30.19,67.43,67.43Z"/>
    <g>
      <path class="cls-1" d="M337.13,674.27c37.24,0,67.43,30.19,67.43,67.43s-30.19,67.43-67.43,67.43v-134.85Z"/>
      <path class="cls-1" d="M471.98,674.27v134.85c-37.24,0-67.43-30.19-67.43-67.43s30.19-67.43,67.43-67.43Z"/>
    </g>
    <path class="cls-3" d="M471.98,809.12v134.85c-37.24,0-67.43-30.19-67.43-67.43s30.19-67.43,67.43-67.43Z"/>
    <g>
      <path class="cls-3" d="M606.83,674.27c0,37.24-30.19,67.43-67.43,67.43s-67.43-30.19-67.43-67.43h134.85Z"/>
      <path class="cls-1" d="M606.83,809.12h-134.85c0-37.24,30.19-67.43,67.43-67.43s67.43,30.19,67.43,67.43Z"/>
    </g>
    <path class="cls-1" d="M741.68,809.12c37.24,0,67.43,30.19,67.43,67.43s-30.19,67.43-67.43,67.43v-134.85Z"/>
    <path class="cls-1" d="M876.53,809.12v134.85c-37.24,0-67.43-30.19-67.43-67.43s30.19-67.43,67.43-67.43Z"/>
    <g>
      <path class="cls-3" d="M606.83,674.27c37.24,0,67.43,30.19,67.43,67.43s-30.19,67.43-67.43,67.43v-134.85Z"/>
      <path class="cls-3" d="M741.68,674.27v134.85c-37.24,0-67.43-30.19-67.43-67.43s30.19-67.43,67.43-67.43Z"/>
    </g>
    <g>
      <path class="cls-2" d="M741.68,809.12c0,37.24-30.19,67.43-67.43,67.43s-67.43-30.19-67.43-67.43h134.85Z"/>
      <path class="cls-3" d="M741.68,943.97h-134.85c0-37.24,30.19-67.43,67.43-67.43s67.43,30.19,67.43,67.43Z"/>
    </g>
    <g>
      <path class="cls-1" d="M876.53,674.27c0,37.24-30.19,67.43-67.43,67.43s-67.43-30.19-67.43-67.43h134.85Z"/>
      <path class="cls-2" d="M876.53,809.12h-134.85c0-37.24,30.19-67.43,67.43-67.43s67.43,30.19,67.43,67.43Z"/>
    </g>
    <path class="cls-3" d="M1146.23,809.12c0,37.24-30.19,67.43-67.43,67.43s-67.43-30.19-67.43-67.43h134.85Z"/>
    <path class="cls-2" d="M1146.23,943.97h-134.85c0-37.24,30.19-67.43,67.43-67.43s67.43,30.19,67.43,67.43Z"/>
    <g>
      <path class="cls-3" d="M876.53,674.27c37.24,0,67.43,30.19,67.43,67.43s-30.19,67.43-67.43,67.43v-134.85Z"/>
      <path class="cls-2" d="M1011.38,674.27v134.85c-37.24,0-67.43-30.19-67.43-67.43s30.19-67.43,67.43-67.43Z"/>
    </g>
    <g>
      <path class="cls-1" d="M1011.38,809.12c0,37.24-30.19,67.43-67.43,67.43s-67.43-30.19-67.43-67.43h134.85Z"/>
      <path class="cls-2" d="M1011.38,943.97h-134.85c0-37.24,30.19-67.43,67.43-67.43s67.43,30.19,67.43,67.43Z"/>
    </g>
    <g>
      <path class="cls-3" d="M1146.23,674.27c0,37.24-30.19,67.43-67.43,67.43s-67.43-30.19-67.43-67.43h134.85Z"/>
      <path class="cls-3" d="M1146.23,809.12h-134.85c0-37.24,30.19-67.43,67.43-67.43s67.43,30.19,67.43,67.43Z"/>
    </g>
    <path class="cls-2" d="M337.13,539.42c0,37.24-30.19,67.43-67.43,67.43s-67.43-30.19-67.43-67.43h134.85Z"/>
    <path class="cls-3" d="M337.13,674.27h-134.85c0-37.24,30.19-67.43,67.43-67.43s67.43,30.19,67.43,67.43Z"/>
    <path class="cls-1" d="M202.28,674.27c-37.24,0-67.43-30.19-67.43-67.43s30.19-67.43,67.43-67.43v134.85Z"/>
    <path class="cls-3" d="M337.13,404.57v134.85c-37.24,0-67.43-30.19-67.43-67.43s30.19-67.43,67.43-67.43Z"/>
    <path class="cls-1" d="M606.83,674.27c-37.24,0-67.43-30.19-67.43-67.43s30.19-67.43,67.43-67.43v134.85Z"/>
    <path class="cls-1" d="M471.98,674.27v-134.85c37.24,0,67.43,30.19,67.43,67.43s-30.19,67.43-67.43,67.43Z"/>
    <g>
      <path class="cls-3" d="M337.13,404.57c37.24,0,67.43,30.19,67.43,67.43s-30.19,67.43-67.43,67.43v-134.85Z"/>
      <path class="cls-3" d="M471.98,404.57v134.85c-37.24,0-67.43-30.19-67.43-67.43s30.19-67.43,67.43-67.43Z"/>
    </g>
    <g>
      <path class="cls-2" d="M471.98,539.42c0,37.24-30.19,67.43-67.43,67.43s-67.43-30.19-67.43-67.43h134.85Z"/>
      <path class="cls-2" d="M471.98,674.27h-134.85c0-37.24,30.19-67.43,67.43-67.43s67.43,30.19,67.43,67.43Z"/>
    </g>
    <g>
      <path class="cls-2" d="M606.83,404.57c0,37.24-30.19,67.43-67.43,67.43s-67.43-30.19-67.43-67.43h134.85Z"/>
      <path class="cls-3" d="M606.83,539.42h-134.85c0-37.24,30.19-67.43,67.43-67.43s67.43,30.19,67.43,67.43Z"/>
    </g>
    <path class="cls-2" d="M876.53,674.27c-37.24,0-67.43-30.19-67.43-67.43s30.19-67.43,67.43-67.43v134.85Z"/>
    <path class="cls-2" d="M741.68,674.27v-134.85c37.24,0,67.43,30.19,67.43,67.43s-30.19,67.43-67.43,67.43Z"/>
    <g>
      <path class="cls-1" d="M606.83,539.42c0-37.24,30.19-67.43,67.43-67.43s67.43,30.19,67.43,67.43h-134.85Z"/>
      <path class="cls-3" d="M606.83,404.57h134.85c0,37.24-30.19,67.43-67.43,67.43s-67.43-30.19-67.43-67.43Z"/>
    </g>
    <g>
      <path class="cls-2" d="M741.68,674.27c-37.24,0-67.43-30.19-67.43-67.43s30.19-67.43,67.43-67.43v134.85Z"/>
      <path class="cls-1" d="M606.83,674.27v-134.85c37.24,0,67.43,30.19,67.43,67.43s-30.19,67.43-67.43,67.43Z"/>
    </g>
    <g>
      <path class="cls-3" d="M741.68,404.57c37.24,0,67.43,30.19,67.43,67.43s-30.19,67.43-67.43,67.43v-134.85Z"/>
      <path class="cls-3" d="M876.53,404.57v134.85c-37.24,0-67.43-30.19-67.43-67.43s30.19-67.43,67.43-67.43Z"/>
    </g>
    <path class="cls-2" d="M1146.23,674.27c-37.24,0-67.43-30.19-67.43-67.43s30.19-67.43,67.43-67.43v134.85Z"/>
    <path class="cls-3" d="M1011.38,674.27v-134.85c37.24,0,67.43,30.19,67.43,67.43s-30.19,67.43-67.43,67.43Z"/>
    <g>
      <path class="cls-3" d="M876.53,404.57c37.24,0,67.43,30.19,67.43,67.43s-30.19,67.43-67.43,67.43v-134.85Z"/>
      <path class="cls-1" d="M1011.38,404.57v134.85c-37.24,0-67.43-30.19-67.43-67.43s30.19-67.43,67.43-67.43Z"/>
    </g>
    <g>
      <path class="cls-2" d="M1011.38,539.42c0,37.24-30.19,67.43-67.43,67.43s-67.43-30.19-67.43-67.43h134.85Z"/>
      <path class="cls-1" d="M1011.38,674.27h-134.85c0-37.24,30.19-67.43,67.43-67.43s67.43,30.19,67.43,67.43Z"/>
    </g>
    <g>
      <path class="cls-1" d="M1146.23,539.42c-37.24,0-67.43-30.19-67.43-67.43s30.19-67.43,67.43-67.43v134.85Z"/>
      <path class="cls-1" d="M1011.38,539.42v-134.85c37.24,0,67.43,30.19,67.43,67.43s-30.19,67.43-67.43,67.43Z"/>
    </g>
    <g>
      <path class="cls-3" d="M606.83,269.7c37.24,0,67.43,30.19,67.43,67.43s-30.19,67.43-67.43,67.43v-134.85Z"/>
      <path class="cls-3" d="M741.68,269.7v134.85c-37.24,0-67.43-30.19-67.43-67.43s30.19-67.43,67.43-67.43Z"/>
    </g>
    <g>
      <path class="cls-1" d="M876.53,269.7c0,37.24-30.19,67.43-67.43,67.43s-67.43-30.19-67.43-67.43h134.85Z"/>
      <path class="cls-2" d="M876.53,404.55h-134.85c0-37.24,30.19-67.43,67.43-67.43s67.43,30.19,67.43,67.43Z"/>
    </g>
    <g>
      <path class="cls-3" d="M876.53,269.7c37.24,0,67.43,30.19,67.43,67.43s-30.19,67.43-67.43,67.43v-134.85Z"/>
      <path class="cls-2" d="M1011.38,269.7v134.85c-37.24,0-67.43-30.19-67.43-67.43s30.19-67.43,67.43-67.43Z"/>
    </g>
    <g>
      <path class="cls-3" d="M1146.23,269.7c0,37.24-30.19,67.43-67.43,67.43s-67.43-30.19-67.43-67.43h134.85Z"/>
      <path class="cls-3" d="M1146.23,404.55h-134.85c0-37.24,30.19-67.43,67.43-67.43s67.43,30.19,67.43,67.43Z"/>
    </g>
    <path class="cls-2" d="M876.53,269.7c-37.24,0-67.43-30.19-67.43-67.43s30.19-67.43,67.43-67.43v134.85Z"/>
    <path class="cls-2" d="M1146.23,269.7c-37.24,0-67.43-30.19-67.43-67.43s30.19-67.43,67.43-67.43v134.85Z"/>
    <path class="cls-3" d="M1011.38,269.7v-134.85c37.24,0,67.43,30.19,67.43,67.43s-30.19,67.43-67.43,67.43Z"/>
    <path class="cls-1" d="M1011.38,0v134.85c-37.24,0-67.43-30.19-67.43-67.43S974.14,0,1011.38,0Z"/>
    <g>
      <path class="cls-2" d="M1011.38,134.85c0,37.24-30.19,67.43-67.43,67.43s-67.43-30.19-67.43-67.43h134.85Z"/>
      <path class="cls-1" d="M1011.38,269.7h-134.85c0-37.24,30.19-67.43,67.43-67.43s67.43,30.19,67.43,67.43Z"/>
    </g>
    <g>
      <path class="cls-1" d="M1146.23,134.85c-37.24,0-67.43-30.19-67.43-67.43S1108.99,0,1146.23,0v134.85Z"/>
      <path class="cls-1" d="M1011.38,134.85V0c37.24,0,67.43,30.19,67.43,67.43s-30.19,67.43-67.43,67.43Z"/>
    </g>
  </g>
</svg>