<?xml version="1.0" encoding="UTF-8"?>
<svg id="Layer_2" xmlns="http://www.w3.org/2000/svg" viewBox="0 0 535.19 74.27">
  <defs>
    <style>
      .cls-1 {
        fill: #009d96;
      }

      .cls-2 {
        fill: #032851;
      }

      .cls-3 {
        fill: #ff530e;
      }
    </style>
  </defs>
  <g id="Layer_1-2" data-name="Layer_1">
    <g>
      <g>
        <path class="cls-2" d="M332.41,62.61l-11.02-36.92h6.46l7.47,24.79,7.63-24.79h4.98l7.63,24.79,7.52-24.79h6.41l-11.02,36.92h-5.25l-7.79-24.79-7.84,24.79h-5.19Z"/>
        <path class="cls-2" d="M367,49.26c0-1.91.34-3.72,1.01-5.43.67-1.71,1.62-3.2,2.83-4.48,1.22-1.27,2.65-2.26,4.29-2.97,1.64-.71,3.38-1.06,5.22-1.06,2.12,0,3.95.42,5.48,1.27,1.54.85,2.55,1.91,3.05,3.18v-3.87h6.36v18.65c0,1.09.15,1.89.45,2.38.3.5.8.74,1.51.74l1.32-.11v5.14c-.71.28-1.75.42-3.13.42-1.52,0-2.76-.28-3.71-.85-1.17-.78-1.89-1.85-2.17-3.23-.85,1.24-2.03,2.24-3.55,3.02-1.52.78-3.39,1.17-5.62,1.17-1.84,0-3.58-.35-5.22-1.06-1.64-.71-3.07-1.7-4.29-2.97-1.22-1.27-2.16-2.77-2.83-4.5-.67-1.73-1.01-3.55-1.01-5.46ZM373.3,49.26c0,.85.13,1.73.4,2.65.26.92.71,1.78,1.35,2.6.64.81,1.47,1.5,2.52,2.07,1.04.56,2.25.85,3.63.85.81,0,1.69-.14,2.62-.42.94-.28,1.81-.75,2.62-1.4.81-.65,1.5-1.52,2.07-2.6.56-1.08.85-2.32.85-3.73,0-.85-.14-1.73-.42-2.65-.28-.92-.75-1.78-1.4-2.6-.65-.81-1.52-1.5-2.6-2.07-1.08-.56-2.32-.85-3.73-.85-.81,0-1.66.14-2.54.42-.88.28-1.72.75-2.52,1.4-.79.65-1.47,1.52-2.01,2.6-.55,1.08-.82,2.32-.82,3.73Z"/>
        <path class="cls-2" d="M421.14,35.91h6.36v22.25c0,2.3-.15,4.29-.45,5.99-.3,1.69-.8,3.12-1.51,4.26-.71,1.15-1.55,2.11-2.54,2.89-1.2.92-2.63,1.64-4.29,2.17-1.66.53-3.37.79-5.14.79-4.98,0-9.29-1.29-12.93-3.87l3.07-4.72c2.93,1.94,5.99,2.91,9.16,2.91,1.06,0,2.12-.13,3.18-.4,1.06-.27,1.96-.66,2.7-1.19,1.69-1.24,2.54-3.5,2.54-6.78v-1.32c-.6,1.09-1.68,2.02-3.23,2.78-1.55.76-3.37,1.14-5.46,1.14-1.84,0-3.58-.34-5.22-1.03-1.64-.69-3.07-1.65-4.29-2.89-1.22-1.24-2.16-2.7-2.83-4.4-.67-1.7-1.01-3.48-1.01-5.35s.34-3.66,1.01-5.38c.67-1.71,1.62-3.2,2.83-4.45,1.22-1.25,2.65-2.23,4.29-2.94,1.64-.71,3.38-1.06,5.22-1.06,2.15,0,4,.42,5.54,1.27,1.54.85,2.53,1.91,2.99,3.18v-3.87ZM405.57,49.16c0,1.41.34,2.76,1.01,4.05.67,1.29,1.64,2.28,2.91,2.97,1.27.69,2.6,1.03,3.97,1.03,2.3,0,4.23-.77,5.8-2.3,1.57-1.54,2.36-3.45,2.36-5.75s-.79-4.17-2.36-5.72c-1.57-1.55-3.51-2.33-5.8-2.33s-4.1.78-5.62,2.33c-1.52,1.55-2.28,3.46-2.28,5.72Z"/>
        <path class="cls-2" d="M430.78,49.48v-.21c0-2.08.35-4,1.06-5.75.71-1.75,1.69-3.24,2.94-4.48,1.25-1.24,2.75-2.19,4.48-2.86,1.73-.67,3.57-1.01,5.51-1.01s3.68.34,5.32,1.03c1.64.69,3.05,1.65,4.21,2.89,1.17,1.24,2.07,2.67,2.7,4.32.64,1.64.95,3.38.95,5.22l-.11,2.22h-20.77c.11,2.12.89,3.81,2.36,5.09,1.46,1.27,3.36,1.91,5.69,1.91,1.17,0,2.33-.19,3.5-.56,1.17-.37,2.4-1.21,3.71-2.52l3.81,3.71c-3,3.18-6.75,4.77-11.23,4.77-2.05,0-3.95-.33-5.69-.98-1.75-.65-3.25-1.58-4.5-2.78-1.25-1.2-2.23-2.66-2.91-4.37-.69-1.71-1.03-3.59-1.03-5.64ZM437.24,46.4h14.25c0-1.59-.66-2.96-1.99-4.1-1.32-1.15-2.91-1.72-4.74-1.72-.92,0-1.94.19-3.07.58-1.13.39-2.13,1.07-2.99,2.04-.87.97-1.35,2.04-1.46,3.2Z"/>
        <path class="cls-2" d="M474.38,25.7h11.02c.95,0,1.97.15,3.05.45,1.08.3,2.08.82,3.02,1.56.94.74,1.73,1.71,2.38,2.91.65,1.2.98,2.61.98,4.24,0,1.8-.45,3.4-1.35,4.79-.9,1.39-2.13,2.36-3.68,2.89,2.3.32,4.15,1.37,5.56,3.15,1.41,1.78,2.12,3.91,2.12,6.38,0,1.45-.27,2.83-.82,4.13-.55,1.31-1.31,2.44-2.28,3.39s-2.11,1.69-3.42,2.22c-1.31.53-2.7.79-4.18.79h-12.4V25.7ZM485.18,41.58c.92,0,1.92-.21,2.99-.64,1.08-.42,1.99-1.18,2.75-2.28.76-1.09,1.14-2.33,1.14-3.71,0-1.94-.64-3.55-1.93-4.82-1.29-1.27-2.92-1.91-4.9-1.91h-8.1v13.35h8.05ZM486.61,60.07c2.3,0,4.22-.77,5.77-2.3,1.55-1.54,2.33-3.43,2.33-5.69s-.78-4.19-2.36-5.69c-1.57-1.5-3.56-2.25-5.96-2.25h-9.27v15.94h9.48Z"/>
        <path class="cls-2" d="M502.85,37.98c.65-2.15,1.77-4.19,3.34-6.09,1.57-1.91,3.32-3.36,5.24-4.37,1.92-1.01,3.69-1.67,5.3-1.99,1.61-.32,3.03-.48,4.26-.48,2.75,0,5.36.55,7.81,1.64,2.45,1.09,4.55,2.61,6.28,4.56l-1.85,1.75c-1.45-1.69-3.24-3.02-5.38-3.97-2.14-.95-4.42-1.43-6.86-1.43-2.26,0-4.41.41-6.44,1.24-2.03.83-3.79,1.99-5.27,3.5-1.48,1.5-2.63,3.28-3.44,5.32-.81,2.05-1.22,4.22-1.22,6.51s.41,4.46,1.22,6.49c.81,2.03,1.96,3.8,3.44,5.3,1.48,1.5,3.24,2.67,5.27,3.5,2.03.83,4.18,1.24,6.44,1.24,1.17,0,2.5-.16,4-.48,1.5-.32,2.99-.92,4.48-1.8,1.48-.88,2.75-1.96,3.81-3.23l1.91,1.75c-1.73,1.98-3.83,3.52-6.3,4.63-2.47,1.11-5.1,1.67-7.89,1.67-2.58,0-5.04-.48-7.39-1.43-2.35-.95-4.4-2.3-6.14-4.03-1.75-1.73-3.12-3.77-4.1-6.12-.99-2.35-1.48-4.85-1.48-7.49,0-1.98.33-4.04.98-6.2Z"/>
      </g>
      <g>
        <path class="cls-2" d="M170.14,62.61V25.69h6.62v30.94h14.67v5.99h-21.3Z"/>
        <path class="cls-2" d="M195.94,56.36v-20.45h6.36v18.75c0,.99.14,1.71.42,2.15.28.44.76.66,1.43.66l1.11-.1v5.35c-.64.28-1.69.42-3.18.42-4.1,0-6.15-2.26-6.15-6.78Z"/>
        <path class="cls-2" d="M216.28,62.61l-11.44-26.7h6.57l7.58,18.12,7.52-18.12h6.57l-11.44,26.7h-5.35Z"/>
        <path class="cls-2" d="M236.25,56.36v-20.45h6.36v18.75c0,.99.14,1.71.42,2.15.28.44.76.66,1.43.66l1.11-.1v5.35c-.64.28-1.69.42-3.18.42-4.1,0-6.15-2.26-6.15-6.78Z"/>
        <path class="cls-2" d="M249.28,62.61v-26.7h6.3v3.81c.6-1.27,1.62-2.31,3.05-3.13,1.43-.81,3.08-1.22,4.95-1.22,3.11,0,5.54.96,7.31,2.89,1.77,1.92,2.65,4.53,2.65,7.81v8.42c0,1.03.12,1.75.37,2.17.25.42.72.64,1.43.64l.9-.1v5.35c-.74.21-1.66.32-2.75.32-4.17,0-6.25-2.33-6.25-6.99v-8.9c0-1.31-.28-2.45-.85-3.42-.56-.97-1.3-1.63-2.2-1.99-.9-.35-1.76-.53-2.57-.53s-1.7.2-2.65.58c-.95.39-1.76,1.09-2.41,2.12-.65,1.03-.98,2.19-.98,3.5v15.36h-6.3Z"/>
        <path class="cls-2" d="M300.51,35.91h6.36v22.25c0,2.3-.15,4.29-.45,5.99-.3,1.7-.8,3.12-1.51,4.26-.71,1.15-1.55,2.11-2.54,2.89-1.2.92-2.63,1.64-4.29,2.17-1.66.53-3.37.79-5.14.79-4.98,0-9.29-1.29-12.93-3.87l3.07-4.71c2.93,1.94,5.99,2.91,9.16,2.91,1.06,0,2.12-.13,3.18-.4,1.06-.27,1.96-.66,2.7-1.19,1.69-1.24,2.54-3.5,2.54-6.78v-1.32c-.6,1.09-1.68,2.02-3.23,2.78-1.55.76-3.37,1.14-5.46,1.14-1.84,0-3.58-.34-5.22-1.03-1.64-.69-3.07-1.65-4.29-2.89-1.22-1.24-2.16-2.7-2.83-4.4-.67-1.7-1.01-3.48-1.01-5.35s.34-3.66,1.01-5.38c.67-1.71,1.62-3.2,2.83-4.45,1.22-1.25,2.65-2.23,4.29-2.94,1.64-.71,3.38-1.06,5.22-1.06,2.15,0,4,.42,5.54,1.27,1.54.85,2.53,1.91,2.99,3.18v-3.87ZM284.93,49.16c0,1.41.34,2.76,1.01,4.05.67,1.29,1.64,2.28,2.91,2.97,1.27.69,2.6,1.03,3.97,1.03,2.3,0,4.23-.77,5.8-2.31,1.57-1.53,2.36-3.45,2.36-5.75s-.79-4.17-2.36-5.72c-1.57-1.55-3.51-2.33-5.8-2.33s-4.1.78-5.62,2.33c-1.52,1.56-2.28,3.46-2.28,5.72Z"/>
      </g>
      <path class="cls-2" d="M199.12,32.79c-1.03,0-1.92-.37-2.68-1.11-.76-.74-1.14-1.62-1.14-2.65s.38-1.91,1.14-2.65c.76-.74,1.65-1.11,2.68-1.11s1.86.37,2.62,1.11c.76.74,1.14,1.62,1.14,2.65s-.38,1.91-1.14,2.65c-.76.74-1.63,1.11-2.62,1.11Z"/>
      <path class="cls-2" d="M239.43,32.79c-1.03,0-1.92-.37-2.68-1.11-.76-.74-1.14-1.62-1.14-2.65s.38-1.91,1.14-2.65c.76-.74,1.65-1.11,2.68-1.11s1.86.37,2.62,1.11c.76.74,1.14,1.62,1.14,2.65s-.38,1.91-1.14,2.65c-.76.74-1.63,1.11-2.62,1.11Z"/>
      <circle class="cls-1" cx="22.88" cy="26.53" r="9.3"/>
      <circle class="cls-3" cx="66.36" cy="11.38" r="11.38"/>
      <circle class="cls-2" cx="109.96" cy="26.53" r="9.3"/>
      <path class="cls-1" d="M0,62.24c1.46-11.34,10.88-19.97,21.94-20.42,11.73-.48,22.26,8.37,23.83,20.42"/>
      <path class="cls-2" d="M86.96,62.24c1.46-11.34,10.88-19.97,21.94-20.42,11.73-.48,22.26,8.37,23.83,20.42"/>
      <path class="cls-3" d="M31.38,62.24c2.18-17.02,16.32-29.96,32.9-30.63,17.59-.71,33.39,12.56,35.74,30.63"/>
    </g>
  </g>
</svg>